<svg width="50" height="51" viewBox="0 0 50 51" fill="none" xmlns="http://www.w3.org/2000/svg">
<g clip-path="url(#clip0_175_252)">
<path d="M33.696 2.37334C30.9877 1.36846 28.0584 0.818359 25.0004 0.818359C21.9424 0.818359 19.0131 1.36846 16.3048 2.37334L14.1309 25.8184L16.3048 49.2634C19.0131 50.2684 21.9424 50.8184 25.0004 50.8184C28.0584 50.8184 30.9877 50.2684 33.696 49.2634L35.8699 25.8184L33.696 2.37334Z" fill="#FFDA44"/>
<path d="M49.9997 25.818C49.9997 15.0689 43.2153 5.90527 33.6953 2.37305V49.2632C43.2153 45.7307 49.9997 36.5672 49.9997 25.818V25.818Z" fill="#D80027"/>
<path d="M0 25.818C0 36.5672 6.78437 45.7307 16.3044 49.2631V2.37305C6.78437 5.90527 0 15.0689 0 25.818V25.818Z" fill="black"/>
</g>
<defs>
<clipPath id="clip0_175_252">
<rect width="50" height="50" fill="white" transform="translate(0 0.818359)"/>
</clipPath>
</defs>
</svg>
