<svg width="50" height="51" viewBox="0 0 50 51" fill="none" xmlns="http://www.w3.org/2000/svg">
<g clip-path="url(#clip0_175_252)">
<path d="M25 50.8184C38.8071 50.8184 50 39.6255 50 25.8184C50 12.0112 38.8071 0.818359 25 0.818359C11.1929 0.818359 0 12.0112 0 25.8184C0 39.6255 11.1929 50.8184 25 50.8184Z" fill="#F0F0F0"/>
<path d="M49.9997 25.8181C49.9997 15.0689 43.2153 5.90537 33.6953 2.37305V49.2632C43.2153 45.7308 49.9997 36.5672 49.9997 25.8181V25.8181Z" fill="#D80027"/>
<path d="M0 25.8181C0 36.5672 6.78447 45.7308 16.3044 49.2631V2.37305C6.78447 5.90537 0 15.0689 0 25.8181Z" fill="#0052B4"/>
</g>
<defs>
<clipPath id="clip0_175_252">
<rect width="50" height="50" fill="white" transform="translate(0 0.818359)"/>
</clipPath>
</defs>
</svg>
