<svg width="50" height="51" viewBox="0 0 50 51" fill="none" xmlns="http://www.w3.org/2000/svg">
<g clip-path="url(#clip0_175_252)">
<path d="M25 50.8184C38.8071 50.8184 50 39.6255 50 25.8184C50 12.0112 38.8071 0.818359 25 0.818359C11.1929 0.818359 0 12.0112 0 25.8184C0 39.6255 11.1929 50.8184 25 50.8184Z" fill="#F0F0F0"/>
<path d="M49.9996 25.8182C49.9996 15.9066 44.2315 7.34258 35.8691 3.29883V48.3374C44.2315 44.2938 49.9996 35.7297 49.9996 25.8182V25.8182Z" fill="#D80027"/>
<path d="M0 25.8182C0 35.7297 5.76807 44.2937 14.1305 48.3375V3.29883C5.76807 7.34258 0 15.9066 0 25.8182Z" fill="#6DA544"/>
<path d="M18.4785 25.8185C18.4785 29.4203 21.3984 32.3402 25.0003 32.3402C28.6021 32.3402 31.5221 29.4203 31.5221 25.8185V23.6445H18.4785V25.8185Z" fill="#6DA544"/>
<path d="M33.6961 21.4708H27.1743C27.1743 20.2702 26.201 19.2969 25.0004 19.2969C23.7998 19.2969 22.8265 20.2702 22.8265 21.4708H16.3047C16.3047 22.6715 17.3505 23.6447 18.551 23.6447H18.4786C18.4786 24.8454 19.4519 25.8187 20.6525 25.8187C20.6525 27.0193 21.6258 27.9926 22.8265 27.9926H27.1743C28.375 27.9926 29.3482 27.0193 29.3482 25.8187C30.5489 25.8187 31.5222 24.8454 31.5222 23.6447H31.4497C32.6504 23.6447 33.6961 22.6715 33.6961 21.4708Z" fill="#FF9811"/>
</g>
<defs>
<clipPath id="clip0_175_252">
<rect width="50" height="50" fill="white" transform="translate(0 0.818359)"/>
</clipPath>
</defs>
</svg>
