<svg width="50" height="51" viewBox="0 0 50 51" fill="none" xmlns="http://www.w3.org/2000/svg">
<g clip-path="url(#clip0_175_252)">
<path d="M1.55469 34.5137C5.08701 44.0336 14.2506 50.8181 24.9997 50.8181C35.7488 50.8181 44.9124 44.0336 48.4447 34.5137L24.9997 32.3398L1.55469 34.5137Z" fill="#FFDA44"/>
<path d="M24.9997 0.818359C14.2506 0.818359 5.08701 7.60273 1.55469 17.1228L24.9997 19.2966L48.4447 17.1227C44.9124 7.60273 35.7488 0.818359 24.9997 0.818359Z" fill="black"/>
<path d="M1.55498 17.123C0.550098 19.8313 0 22.7606 0 25.8187C0 28.8767 0.550098 31.806 1.55498 34.5143H48.4451C49.45 31.806 50 28.8767 50 25.8187C50 22.7606 49.45 19.8313 48.445 17.123H1.55498Z" fill="#D80027"/>
</g>
<defs>
<clipPath id="clip0_175_252">
<rect width="50" height="50" fill="white" transform="translate(0 0.818359)"/>
</clipPath>
</defs>
</svg>
