<svg width="50" height="51" viewBox="0 0 50 51" fill="none" xmlns="http://www.w3.org/2000/svg">
<g clip-path="url(#clip0_175_252)">
<path d="M50 25.8184C50 39.6254 38.807 50.8184 25 50.8184C11.193 50.8184 0 39.6254 0 25.8184C0 25.8242 25 0.821191 25 0.818359C38.807 0.818359 50 12.0113 50 25.8184Z" fill="#0052B4"/>
<path d="M24.9336 25.8188H25.0005C25.0005 25.7962 25.0005 25.7745 25.0005 25.752C24.9782 25.7743 24.956 25.7966 24.9336 25.8188Z" fill="#F0F0F0"/>
<path d="M25 13.8618C25 9.46289 25 6.58037 25 0.818359H24.9958C11.1906 0.820605 0 12.0125 0 25.8183H13.0435V18.4733L20.3884 25.8183H24.9332C24.9556 25.796 24.9778 25.7737 25.0001 25.7514C25.0001 24.0671 25.0001 22.5643 25.0001 21.2068L17.6551 13.8618H25Z" fill="#F0F0F0"/>
<path d="M12.6479 4.0791C8.73779 6.30557 5.48721 9.55615 3.26074 13.4662V25.8183H9.78252V10.601V10.6009H24.9999C24.9999 8.54395 24.9999 6.58437 24.9999 4.0791H12.6479Z" fill="#D80027"/>
<path d="M24.9994 22.7444L16.1173 13.8623H13.043C13.043 13.8623 13.043 13.8623 13.043 13.8623L24.9993 25.8187H24.9994C24.9994 25.8187 24.9994 23.6991 24.9994 22.7444Z" fill="#D80027"/>
<path d="M15.0774 30.166L16.4495 33.035L19.5479 32.3188L18.1604 35.1804L20.652 37.1562L17.5497 37.8555L17.5584 41.0355L15.0774 39.046L12.5966 41.0355L12.6053 37.8555L9.50293 37.1562L11.9946 35.1804L10.6069 32.3188L13.7055 33.035L15.0774 30.166Z" fill="#F0F0F0"/>
<path d="M37.4298 35.6006L38.1158 37.0351L39.665 36.677L38.9712 38.1077L40.2171 39.0957L38.6659 39.4453L38.6702 41.0353L37.4298 40.0405L36.1894 41.0353L36.1937 39.4453L34.6426 39.0957L35.8884 38.1077L35.1946 36.677L36.7438 37.0351L37.4298 35.6006Z" fill="#F0F0F0"/>
<path d="M31.048 20.3828L31.734 21.8174L33.2832 21.4592L32.5895 22.8899L33.8353 23.8779L32.2842 24.2275L32.2884 25.8176L31.048 24.8228L29.8076 25.8176L29.8118 24.2275L28.2607 23.8779L29.5065 22.8899L28.8128 21.4592L30.362 21.8174L31.048 20.3828Z" fill="#F0F0F0"/>
<path d="M37.4298 11.6875L38.1158 13.1221L39.665 12.764L38.9713 14.1947L40.217 15.1826L38.6659 15.5323L38.6702 17.1224L37.4298 16.1275L36.1894 17.1224L36.1937 15.5323L34.6426 15.1826L35.8883 14.1947L35.1946 12.764L36.7438 13.1221L37.4298 11.6875Z" fill="#F0F0F0"/>
<path d="M43.0041 18.209L43.69 19.6436L45.2393 19.2854L44.5455 20.7161L45.7913 21.7041L44.2401 22.0538L44.2444 23.6437L43.0041 22.649L41.7637 23.6437L41.7679 22.0538L40.2168 21.7041L41.4626 20.7161L40.7688 19.2854L42.318 19.6436L43.0041 18.209Z" fill="#F0F0F0"/>
<path d="M39.0183 25.8184L39.5578 27.4791H41.3041L39.8913 28.5056L40.4311 30.1662L39.0183 29.1398L37.6056 30.1662L38.1451 28.5056L36.7324 27.4791H38.4786L39.0183 25.8184Z" fill="#F0F0F0"/>
</g>
<defs>
<clipPath id="clip0_175_252">
<rect width="50" height="50" fill="white" transform="translate(0 0.818359)"/>
</clipPath>
</defs>
</svg>
